<?xml version="1.0" encoding="UTF-8"?>
<svg xmlns="http://www.w3.org/2000/svg" xmlns:xlink="http://www.w3.org/1999/xlink" width="30pt" height="25pt" viewBox="0 0 30 25" version="1.1">
<g id="surface1">
<path style=" stroke:none;fill-rule:nonzero;fill:rgb(0%,0%,0%);fill-opacity:1;" d="M 1.933594 8.0625 C 1.0625 8.183594 0.320312 8.753906 0.09375 9.496094 C -0.046875 9.925781 -0.046875 15.074219 0.09375 15.503906 C 0.328125 16.265625 1.0625 16.816406 1.992188 16.945312 C 2.519531 17.011719 27.480469 17.011719 28.007812 16.945312 C 28.9375 16.816406 29.671875 16.265625 29.90625 15.503906 C 30.046875 15.074219 30.046875 9.925781 29.90625 9.496094 C 29.671875 8.734375 28.9375 8.183594 28.007812 8.054688 C 27.523438 7.992188 2.402344 8 1.933594 8.0625 Z M 4.210938 10.0625 C 4.605469 10.242188 4.59375 10.203125 4.628906 12.011719 L 4.65625 13.648438 L 5.800781 13.671875 C 6.554688 13.6875 6.984375 13.714844 7.070312 13.753906 C 7.601562 14.007812 7.578125 14.707031 7.03125 14.945312 C 6.851562 15.03125 6.679688 15.039062 5.242188 15.039062 C 3.46875 15.039062 3.367188 15.023438 3.132812 14.691406 C 3.023438 14.53125 3.015625 14.4375 3.015625 12.5 C 3.015625 10.5625 3.023438 10.46875 3.132812 10.308594 C 3.269531 10.117188 3.585938 9.960938 3.828125 9.960938 C 3.921875 9.960938 4.09375 10.003906 4.210938 10.0625 Z M 11.320312 10.140625 C 11.882812 10.367188 12.28125 10.742188 12.457031 11.226562 C 12.574219 11.542969 12.574219 13.457031 12.457031 13.773438 C 12.28125 14.257812 11.890625 14.628906 11.308594 14.863281 C 10.9375 15.007812 10.898438 15.015625 10.164062 15.015625 C 9.433594 15.015625 9.386719 15.007812 9.023438 14.863281 C 8.554688 14.679688 8.171875 14.371094 7.976562 14.015625 C 7.820312 13.746094 7.820312 13.742188 7.820312 12.5 C 7.820312 11.257812 7.820312 11.253906 7.976562 10.984375 C 8.242188 10.511719 8.84375 10.117188 9.457031 10.007812 C 9.585938 9.984375 9.976562 9.96875 10.324219 9.980469 C 10.875 9.996094 10.992188 10.015625 11.320312 10.140625 Z M 16.746094 10.074219 C 17.085938 10.171875 17.453125 10.390625 17.589844 10.570312 C 17.796875 10.859375 17.671875 11.3125 17.332031 11.488281 C 17.046875 11.640625 16.835938 11.640625 16.4375 11.480469 C 15.945312 11.28125 15.445312 11.265625 15.195312 11.445312 L 15.03125 11.5625 L 15.03125 13.4375 L 15.195312 13.554688 C 15.316406 13.640625 15.429688 13.671875 15.625 13.671875 C 15.855469 13.671875 15.882812 13.664062 15.84375 13.585938 C 15.742188 13.394531 15.757812 13.109375 15.875 12.949219 C 16.085938 12.671875 16.304688 12.597656 16.921875 12.597656 C 17.554688 12.597656 17.796875 12.664062 17.992188 12.894531 C 18.25 13.203125 18.128906 13.859375 17.726562 14.316406 C 17.3125 14.785156 16.617188 15.039062 15.761719 15.039062 C 14.941406 15.039062 14.355469 14.847656 13.929688 14.457031 C 13.453125 14.023438 13.359375 13.691406 13.359375 12.5 C 13.359375 11.585938 13.414062 11.234375 13.605469 10.921875 C 13.863281 10.5 14.390625 10.148438 14.964844 10.03125 C 15.351562 9.945312 16.40625 9.96875 16.746094 10.074219 Z M 20.054688 10.03125 C 20.164062 10.0625 20.308594 10.15625 20.390625 10.230469 L 20.539062 10.359375 L 20.570312 14.59375 L 20.382812 14.765625 C 20.023438 15.117188 19.441406 15.113281 19.117188 14.761719 L 18.953125 14.585938 L 18.953125 12.503906 C 18.953125 10.433594 18.953125 10.425781 19.085938 10.273438 C 19.230469 10.109375 19.523438 9.964844 19.734375 9.960938 C 19.804688 9.960938 19.953125 9.992188 20.054688 10.03125 Z M 22.765625 10.054688 C 22.953125 10.125 23.1875 10.347656 23.992188 11.21875 C 24.546875 11.816406 25.007812 12.300781 25.039062 12.300781 C 25.0625 12.304688 25.078125 11.875 25.078125 11.351562 L 25.078125 10.40625 L 25.253906 10.234375 C 25.695312 9.824219 26.402344 9.917969 26.632812 10.414062 C 26.710938 10.59375 26.726562 10.867188 26.707031 12.574219 C 26.6875 14.804688 26.695312 14.769531 26.210938 14.953125 C 25.890625 15.070312 25.628906 15.039062 25.382812 14.867188 C 25.289062 14.800781 24.78125 14.289062 24.25 13.71875 L 23.289062 12.695312 L 23.261719 13.636719 C 23.234375 14.578125 23.234375 14.585938 23.070312 14.761719 C 22.746094 15.113281 22.164062 15.117188 21.804688 14.769531 L 21.621094 14.59375 L 21.621094 10.464844 L 21.757812 10.296875 C 21.898438 10.121094 22.210938 9.960938 22.414062 9.960938 C 22.476562 9.960938 22.632812 10.003906 22.765625 10.054688 Z M 22.765625 10.054688 "/>
<path style=" stroke:none;fill-rule:nonzero;fill:rgb(0%,0%,0%);fill-opacity:1;" d="M 9.6875 11.375 C 9.460938 11.453125 9.433594 11.578125 9.433594 12.515625 C 9.433594 13.609375 9.445312 13.628906 10.007812 13.664062 C 10.4375 13.6875 10.628906 13.652344 10.78125 13.523438 C 10.886719 13.4375 10.898438 13.359375 10.898438 12.53125 C 10.898438 12.035156 10.882812 11.59375 10.863281 11.546875 C 10.839844 11.507812 10.75 11.441406 10.65625 11.402344 C 10.476562 11.324219 9.890625 11.308594 9.6875 11.375 Z M 9.6875 11.375 "/>
</g>
</svg>
